<svg width="128" height="128" viewBox="0 0 128 128" fill="none" xmlns="http://www.w3.org/2000/svg">
  <rect width="128" height="128" rx="32" fill="#1d4ed8" />
  <path
    d="M40 64c0-13.255 10.745-24 24-24s24 10.745 24 24-10.745 24-24 24-24-10.745-24-24Zm24-14a14 14 0 1 0 0 28 14 14 0 0 0 0-28Z"
    fill="#bfdbfe"
  />
  <path
    d="M53 76c10.493 4.936 22.613 4.936 33 0 2.235-1.051 4.915.495 4.915 2.978 0 9.414-11.595 21.022-21.915 21.022S47.085 88.392 47.085 78.978C47.085 76.495 50.765 74.949 53 76Z"
    fill="#eff6ff"
  />
</svg>
